HIERARCHY
ROOT reference
{
  OFFSET 0 0 0
  CHANNELS 6 Xposition Yposition Zposition Zrotation Xrotation Yrotation
  JOINT root
  {
    OFFSET 0 88.2491 0
    CHANNELS 6 Xposition Yposition Zposition Zrotation Xrotation Yrotation
    JOINT Hips
    {
      OFFSET 0 0 0
      CHANNELS 6 Xposition Yposition Zposition Zrotation Xrotation Yrotation
      JOINT Spine
      {
        OFFSET -0.026468 -0.105484 -0.0042
        CHANNELS 6 Xposition Yposition Zposition Zrotation Xrotation Yrotation
        JOINT Spine1
        {
          OFFSET 4.85355 17.1934 5.02749
          CHANNELS 6 Xposition Yposition Zposition Zrotation Xrotation Yrotation
          JOINT Spine2
          {
            OFFSET 3.45713 17.0434 6.48957
            CHANNELS 6 Xposition Yposition Zposition Zrotation Xrotation Yrotation
            JOINT Neck
            {
              OFFSET 5.14071 15.5862 8.66938
              CHANNELS 6 Xposition Yposition Zposition Zrotation Xrotation Yrotation
              JOINT Head
              {
                OFFSET 4.15253 8.55481 6.52393
                CHANNELS 6 Xposition Yposition Zposition Zrotation Xrotation Yrotation
                End Site
                {
                  OFFSET 0 0 0
                }
              }
            }
            JOINT RightShoulder
            {
              OFFSET 3.29961 14.5422 11.6337
              CHANNELS 6 Xposition Yposition Zposition Zrotation Xrotation Yrotation
              JOINT RightArm
              {
                OFFSET -5.33341 -8.03212 12.8704
                CHANNELS 6 Xposition Yposition Zposition Zrotation Xrotation Yrotation
                JOINT RightForearm
                {
                  OFFSET -0.595387 -13.7862 25.9663
                  CHANNELS 6 Xposition Yposition Zposition Zrotation Xrotation Yrotation
                  JOINT RightHand
                  {
                    OFFSET 13.5169 -1.51998 20.8898
                    CHANNELS 6 Xposition Yposition Zposition Zrotation Xrotation Yrotation
                    End Site
                    {
                      OFFSET 0 0 0
                    }
                  }
                }
              }
            }
            JOINT LeftShoulder
            {
              OFFSET 6.99272 16.6182 5.71374
              CHANNELS 6 Xposition Yposition Zposition Zrotation Xrotation Yrotation
              JOINT LeftArm
              {
                OFFSET 6.71871 3.2473 -14.245
                CHANNELS 6 Xposition Yposition Zposition Zrotation Xrotation Yrotation
                JOINT LeftForearm
                {
                  OFFSET -8.81743 -14.5927 -23.9577
                  CHANNELS 6 Xposition Yposition Zposition Zrotation Xrotation Yrotation
                  JOINT LeftHand
                  {
                    OFFSET 10.5264 -21.3111 -7.51206
                    CHANNELS 6 Xposition Yposition Zposition Zrotation Xrotation Yrotation
                    End Site
                    {
                      OFFSET 0 0 0
                    }
                  }
                }
              }
            }
          }
        }
      }
      JOINT RightUpLeg
      {
        OFFSET -4.59323 -0.383103 8.37344
        CHANNELS 6 Xposition Yposition Zposition Zrotation Xrotation Yrotation
        JOINT RightLeg
        {
          OFFSET 10.208 -39.0448 19.9625
          CHANNELS 6 Xposition Yposition Zposition Zrotation Xrotation Yrotation
          JOINT RightFoot
          {
            OFFSET -4.84363 -40.8753 1.15034
            CHANNELS 6 Xposition Yposition Zposition Zrotation Xrotation Yrotation
            JOINT RightToe
            {
              OFFSET 9.7367 -6.85346 13.5043
              CHANNELS 6 Xposition Yposition Zposition Zrotation Xrotation Yrotation
              End Site
              {
                OFFSET 0 0 0
              }
            }
          }
        }
      }
      JOINT LeftUpLeg
      {
        OFFSET 4.59322 0.383103 -8.37344
        CHANNELS 6 Xposition Yposition Zposition Zrotation Xrotation Yrotation
        JOINT LeftLeg
        {
          OFFSET 5.42519 -42.6873 -13.2501
          CHANNELS 6 Xposition Yposition Zposition Zrotation Xrotation Yrotation
          JOINT LeftFoot
          {
            OFFSET -11.095 -37.6883 -12.3315
            CHANNELS 6 Xposition Yposition Zposition Zrotation Xrotation Yrotation
            JOINT LeftToe
            {
              OFFSET 16.3568 -7.51904 0.239315
              CHANNELS 6 Xposition Yposition Zposition Zrotation Xrotation Yrotation
              End Site
              {
                OFFSET 0 0 0
              }
            }
          }
        }
      }
    }
  }
}
MOTION
Frames:	9
Frame Time:	0.0333333
0 0 0 0 0 -0 1e-06 88.2491 -4e-06 -2e-06 -1e-06 1e-06 2e-06 7.6294e-06 9.99999e-07 -2e-06 -1.39626e-13 4e-06 -0.026468 -0.105484 -0.0042 4e-06 2.79253e-13 4e-06 4.85355 17.1934 5.02749 -1e-06 0 -4.54982e-21 3.45713 17.0434 6.48957 -2e-06 3e-06 -5e-06 5.14071 15.5862 8.66938 6e-06 -9.99999e-07 6e-06 4.15253 8.55481 6.52393 4e-06 -2e-06 1e-06 3.29961 14.5422 11.6337 9e-06 1e-06 7e-06 -5.33341 -8.03212 12.8704 3e-06 -3e-06 -5e-06 -0.595387 -13.7862 25.9663 3.88179e-20 -2e-06 6e-06 13.5169 -1.51998 20.8898 6e-06 6e-06 -2e-06 6.99272 16.6182 5.71374 1e-06 2e-06 -8e-06 6.71871 3.2473 -14.245 3e-06 -1e-06 -2e-06 -8.81743 -14.5927 -23.9577 -2e-06 -3e-06 8e-06 10.5264 -21.3111 -7.51206 3e-06 -3e-06 -4e-06 -4.59323 -0.383103 8.37344 1.5e-05 -4e-06 7e-06 10.208 -39.0448 19.9625 1e-06 -4e-06 -9e-06 -4.84363 -40.8753 1.15034 7.84815e-21 1e-06 1.13745e-21 9.7367 -6.85346 13.5043 9.26833e-21 0 1.13745e-21 4.59322 0.383103 -8.37344 6e-06 5.23599e-13 5e-06 5.42519 -42.6873 -13.2501 4e-06 -3e-06 -1e-06 -11.095 -37.6883 -12.3315 -2e-06 1e-06 -1e-06 16.3568 -7.51904 0.239315 1.0083e-21 -2.27491e-21 0.000580744 
0.541483 0 0.728274 0 0 -0 -0.537538 88.1788 0.139953 0.0489948 0.134967 0.66556 2e-06 7.6294e-06 9.99999e-07 -0.012937 -0.024331 0.00899051 -0.026468 -0.105484 -0.0042 -0.101021 -0.01959 0.0192535 4.85355 17.1934 5.02749 -0.131059 -0.0200988 0.0606442 3.45713 17.0434 6.48957 -0.084323 -0.0119499 0.0508635 5.14071 15.5862 8.66938 -0.018792 0.091535 -0.073207 4.15253 8.55481 6.52393 0.048183 0.168458 -0.169852 3.29961 14.5422 11.6337 -0.0934138 -0.0920488 -0.139405 -5.33341 -8.03212 12.8704 -0.0390025 3.22776 -1.25738 -0.595387 -13.7862 25.9663 1.30977 -1.66187 2.49063 13.5169 -1.51998 20.8898 -3.53309 -3.59199 -0.684378 6.99272 16.6182 5.71374 -0.0397951 -0.123306 0.0741394 6.71871 3.2473 -14.245 1.68949 0.805962 0.898288 -8.81743 -14.5927 -23.9577 1.23028 -1.47391 -1.145 10.5264 -21.3111 -7.51206 -0.641524 0.545025 -1.23619 -4.59323 -0.383103 8.37344 0.298346 -0.339569 -0.083142 10.208 -39.0448 19.9625 -0.591285 0.753246 -0.101974 -4.84363 -40.8753 1.15034 0.392825 0.0196386 -0.238164 9.7367 -6.85346 13.5043 0.0343059 -0.414706 0.0083793 4.59322 0.383103 -8.37344 -1.26089 0.376675 0.222725 5.42519 -42.6873 -13.2501 2.87299 -0.137223 -0.903392 -11.095 -37.6883 -12.3315 -1.52519 -0.653442 0.500324 16.3568 -7.51904 0.239315 -0.00564026 0.021088 0.000580744 
0.981864 0 1.06799 0 0 -0 -0.910894 87.8631 -1.70854 0.47224 0.497571 2.38943 2e-06 7.6294e-06 9.99999e-07 -0.151745 -0.286021 0.104781 -0.026468 -0.105484 -0.0042 -0.327968 -0.151124 -0.060044 4.85355 17.1934 5.02749 -0.412177 -0.160254 0.133419 3.45713 17.0434 6.48957 -0.270301 -0.103942 0.122094 5.14071 15.5862 8.66938 0.030225 0.323994 -0.325498 4.15253 8.55481 6.52393 0.349822 0.481541 -0.6705 3.29961 14.5422 11.6337 -0.30119 -0.34391 -0.409715 -5.33341 -8.03212 12.8704 -0.152891 12.6839 -4.61272 -0.595387 -13.7862 25.9663 5.33512 -5.96237 9.6405 13.5169 -1.51998 20.8898 -12.675 -12.4836 -4.24965 6.99272 16.6182 5.71374 -0.216168 -0.416504 0.0344139 6.71871 3.2473 -14.245 6.67346 4.01223 2.7315 -8.81743 -14.5927 -23.9577 4.02815 -5.05242 -3.73177 10.5264 -21.3111 -7.51206 -1.87823 1.71663 -3.53613 -4.59323 -0.383103 8.37344 1.38804 -1.96602 -0.740055 10.208 -39.0448 19.9625 -3.45576 4.43213 -0.487759 -4.84363 -40.8753 1.15034 2.69051 1.61747 -0.512711 9.7367 -6.85346 13.5043 -0.0353984 -3.83876 0.102191 4.59322 0.383103 -8.37344 0.420399 -0.532463 -0.961959 5.42519 -42.6873 -13.2501 -0.899036 0.0335943 0.283855 -11.095 -37.6883 -12.3315 1.9449 -1.97432 -0.538499 16.3568 -7.51904 0.239315 -0.0537325 0.200764 0.000580748 
1.42167 0 1.38337 0 0 -0 -0.988881 87.7022 -2.5153 0.775081 0.687676 3.26109 2e-06 7.6294e-06 9.99999e-07 -0.257442 -0.485997 0.177618 -0.026468 -0.105484 -0.0042 -0.436497 -0.21574 -0.0993654 4.85355 17.1934 5.02749 -0.535662 -0.220151 0.201467 3.45713 17.0434 6.48957 -0.349297 -0.142905 0.177825 5.14071 15.5862 8.66938 0.13848 0.364804 -0.459407 4.15253 8.55481 6.52393 0.587258 0.449469 -0.884763 3.29961 14.5422 11.6337 -0.495015 -0.634263 -0.61364 -5.33341 -8.03212 12.8704 -0.717022 18.8172 -6.58706 -0.595387 -13.7862 25.9663 8.61161 -8.75344 15.0669 13.5169 -1.51998 20.8898 -17.9689 -16.2247 -6.16186 6.99272 16.6182 5.71374 -0.373519 -0.680865 0.00534959 6.71871 3.2473 -14.245 9.7778 6.1204 3.41645 -8.81743 -14.5927 -23.9577 5.22775 -6.68648 -4.83253 10.5264 -21.3111 -7.51206 -2.30928 2.22637 -4.11168 -4.59323 -0.383103 8.37344 1.91888 -3.3336 -1.10537 10.208 -39.0448 19.9625 -5.62726 7.23698 -0.658388 -4.84363 -40.8753 1.15034 5.43379 3.76557 -0.269755 9.7367 -6.85346 13.5043 -1.68875 -6.17997 -0.00457463 4.59322 0.383103 -8.37344 1.3813 -0.841143 -1.6645 5.42519 -42.6873 -13.2501 -3.20057 0.0992605 1.0124 -11.095 -37.6883 -12.3315 3.35018 -1.77172 -1.09476 16.3568 -7.51904 0.239315 -0.0877381 0.327815 0.000580754 
2.15554 0 2.47515 0 0 -0 -0.858215 87.6342 -2.68317 0.883767 0.875399 4.32585 2e-06 7.6294e-06 9.99999e-07 -0.314401 -0.593998 0.216758 -0.026468 -0.105484 -0.0042 -0.305869 -0.255833 -0.18128 4.85355 17.1934 5.02749 -0.351462 -0.264261 0.122635 3.45713 17.0434 6.48957 -0.230928 -0.175386 0.111321 5.14071 15.5862 8.66938 0.135218 0.246255 -0.349878 4.15253 8.55481 6.52393 0.470229 0.301094 -0.653452 3.29961 14.5422 11.6337 -0.971286 -1.59231 -0.901823 -5.33341 -8.03212 12.8704 -2.64334 26.0493 -8.26397 -0.595387 -13.7862 25.9663 13.1552 -11.8123 22.2126 13.5169 -1.51998 20.8898 -22.7542 -18.3045 -6.83589 6.99272 16.6182 5.71374 -0.465457 -1.08117 0.334514 6.71871 3.2473 -14.245 12.761 8.1124 3.73192 -8.81743 -14.5927 -23.9577 5.89458 -7.62144 -5.442 10.5264 -21.3111 -7.51206 -2.89185 2.68647 -4.95872 -4.59323 -0.383103 8.37344 2.17266 -4.90343 -1.14205 10.208 -39.0448 19.9625 -7.91543 10.1862 -0.722632 -4.84363 -40.8753 1.15034 8.57526 6.19945 0.645515 9.7367 -6.85346 13.5043 -4.85055 -7.5019 -0.52575 4.59322 0.383103 -8.37344 2.55369 -0.889062 -2.56736 5.42519 -42.6873 -13.2501 -5.89968 0.138911 1.86906 -11.095 -37.6883 -12.3315 3.32649 0.154768 -1.3778 16.3568 -7.51904 0.239315 -0.101826 0.380441 0.000580757 
3.48107 0 6.58179 0 0 -0 -0.673784 88.4309 -0.000134 -0.380061 1.0538 6.57345 2e-06 7.6294e-06 9.99999e-07 0.035713 0.0671326 -0.0247278 -0.026468 -0.105484 -0.0042 0.53473 0.0976251 0.0725191 4.85355 17.1934 5.02749 0.732427 0.108363 -0.0395374 3.45713 17.0434 6.48957 0.493395 0.0661117 -0.0810323 5.14071 15.5862 8.66938 0.923025 -0.414388 0.251924 4.15253 8.55481 6.52393 1.19973 -1.14414 0.842387 3.29961 14.5422 11.6337 -1.7949 -4.45612 -0.434508 -5.33341 -8.03212 12.8704 -7.76224 31.6229 -12.8823 -0.595387 -13.7862 25.9663 21.8431 -15.6361 35.1377 13.5169 -1.51998 20.8898 -27.9964 -16.5335 -1.32541 6.99272 16.6182 5.71374 -0.326215 -1.43746 1.16407 6.71871 3.2473 -14.245 18.1389 10.837 5.37617 -8.81743 -14.5927 -23.9577 5.5933 -7.19665 -5.16687 10.5264 -21.3111 -7.51206 -4.26835 2.64365 -6.43187 -4.59323 -0.383103 8.37344 2.10544 -5.96873 -2.04327 10.208 -39.0448 19.9625 -7.32977 9.43304 -0.717524 -4.84363 -40.8753 1.15034 10.35 6.64133 0.0656837 9.7367 -6.85346 13.5043 -1.80375 -1.45613 -0.0859332 4.59322 0.383103 -8.37344 7.21662 -0.343311 -4.35178 5.42519 -42.6873 -13.2501 -13.5117 0.0332334 4.28384 -11.095 -37.6883 -12.3315 -3.99493 10.4074 0.639074 16.3568 -7.51904 0.239315 -0.17348 0.648109 0.000580781 
5.14781 0 13.9489 0 0 -0 -0.560516 89.2423 -0.572173 -1.90037 0.948772 7.08382 2e-06 7.6294e-06 9.99999e-07 0.681681 1.26928 -0.475663 -0.026468 -0.105484 -0.0042 1.18457 0.353877 0.73371 4.85355 17.1934 5.02749 1.50579 0.236824 0.0335013 3.45713 17.0434 6.48957 1.02315 0.145911 -0.0885526 5.14071 15.5862 8.66938 1.52102 -0.862286 0.705205 4.15253 8.55481 6.52393 1.81357 -2.16773 1.94522 3.29961 14.5422 11.6337 -2.28292 -6.54787 0.111773 -5.33341 -8.03212 12.8704 -5.91978 26.4421 -16.711 -0.595387 -13.7862 25.9663 22.6439 -15.8759 36.2979 13.5169 -1.51998 20.8898 -26.9441 -12.6948 3.87558 6.99272 16.6182 5.71374 -0.416959 -1.77258 1.3819 6.71871 3.2473 -14.245 21.6169 13.3371 7.18751 -8.81743 -14.5927 -23.9577 4.67918 -5.93164 -4.32985 10.5264 -21.3111 -7.51206 -5.98346 2.29166 -8.9275 -4.59323 -0.383103 8.37344 1.95674 -5.65142 -3.87753 10.208 -39.0448 19.9625 -3.36276 4.31215 -0.478087 -4.84363 -40.8753 1.15034 8.05513 6.08164 -1.7716 9.7367 -6.85346 13.5043 -1.3445 -0.976694 -0.0641244 4.59322 0.383103 -8.37344 9.74607 -0.460831 -3.94302 5.42519 -42.6873 -13.2501 -16.3243 -0.0868678 5.1701 -11.095 -37.6883 -12.3315 -10.9462 16.0084 3.07813 16.3568 -7.51904 0.239315 -0.237561 0.887524 0.000580814 
6.62836 0 22.3877 0 0 -0 -0.173435 89.7626 0.69797 -5.6065 1.95034 6.99865 2e-06 7.6294e-06 9.99999e-07 2.34767 4.26291 -1.66928 -0.026468 -0.105484 -0.0042 2.46068 0.693609 2.6956 4.85355 17.1934 5.02749 2.83687 -0.0775244 0.18004 3.45713 17.0434 6.48957 1.93062 -0.0824363 -0.0836022 5.14071 15.5862 8.66938 1.97728 -1.36765 1.45186 4.15253 8.55481 6.52393 2.11179 -3.14711 3.51653 3.29961 14.5422 11.6337 -4.84305 -14.0012 0.666671 -5.33341 -8.03212 12.8704 3.82941 9.78966 -19.1259 -0.595387 -13.7862 25.9663 13.9277 -12.2521 23.3947 13.5169 -1.51998 20.8898 -11.1848 5.23311 10.2292 6.99272 16.6182 5.71374 0.175666 -2.37978 3.53156 6.71871 3.2473 -14.245 29.0429 21.9054 7.1252 -8.81743 -14.5927 -23.9577 2.04463 -2.48256 -1.90049 10.5264 -21.3111 -7.51206 -5.81631 0.634519 -7.65857 -4.59323 -0.383103 8.37344 2.6252 -7.66783 -5.38349 10.208 -39.0448 19.9625 2.90725 -3.65618 0.609319 -4.84363 -40.8753 1.15034 2.8196 11.3198 -3.29265 9.7367 -6.85346 13.5043 -0.816184 -0.659496 -0.0332264 4.59322 0.383103 -8.37344 13.48 -2.38695 -0.00191461 5.42519 -42.6873 -13.2501 -18.5789 -0.214554 5.8761 -11.095 -37.6883 -12.3315 -19.3844 18.7087 4.74236 16.3568 -7.51904 0.239315 -0.30923 1.1552 0.000580862 
7.39534 0 29.7096 0 0 -0 -0.074007 89.1082 -1.13506 -7.83386 2.86837 6.80407 2e-06 7.6294e-06 9.99999e-07 3.38748 6.053 -2.4348 -0.026468 -0.105484 -0.0042 2.94255 0.920531 4.24913 4.85355 17.1934 5.02749 3.17852 -0.373372 0.439983 3.45713 17.0434 6.48957 2.17662 -0.287119 0.0690515 5.14071 15.5862 8.66938 2.32823 -1.86285 1.42307 4.15253 8.55481 6.52393 2.40546 -4.25147 3.63724 3.29961 14.5422 11.6337 -6.27923 -18.1427 1.04021 -5.33341 -8.03212 12.8704 6.59329 0.620378 -17.7796 -0.595387 -13.7862 25.9663 4.64621 -5.30138 8.46061 13.5169 -1.51998 20.8898 1.89217 19.0954 14.382 6.99272 16.6182 5.71374 0.93116 -2.60082 5.50844 6.71871 3.2473 -14.245 33.7674 25.9792 4.586 -8.81743 -14.5927 -23.9577 0.482612 -0.571115 -0.449668 10.5264 -21.3111 -7.51206 -3.89844 0.142433 -4.36177 -4.59323 -0.383103 8.37344 4.79521 -10.9911 -3.61775 10.208 -39.0448 19.9625 1.6223 -2.05106 0.318139 -4.84363 -40.8753 1.15034 2.11538 8.15333 -2.17076 9.7367 -6.85346 13.5043 -0.0544288 -0.468744 0.0200847 4.59322 0.383103 -8.37344 13.0139 -4.80405 1.85296 5.42519 -42.6873 -13.2501 -15.4404 -0.0444343 4.89218 -11.095 -37.6883 -12.3315 -17.6148 14.4285 3.12054 16.3568 -7.51904 0.239315 -0.329027 1.22918 0.000580878 
